<svg xmlns="http://www.w3.org/2000/svg" xmlns:xlink="http://www.w3.org/1999/xlink" width="500" zoomAndPan="magnify" viewBox="0 0 375 187.499995" height="250" preserveAspectRatio="xMidYMid meet" version="1.0"><defs><g/></defs><g fill="#000000" fill-opacity="1"><g transform="translate(30.454465, 93.498459)"><g><path d="M 32.71875 -10.453125 L 15.640625 -10.453125 L 10.875 0 L -4.609375 0 L 23.75 -55.75 L 42.9375 -55.75 L 47.625 0 L 33.09375 0 Z M 21.09375 -22.34375 L 32.265625 -22.34375 L 31.609375 -38.515625 L 31.53125 -41.796875 C 31.53125 -43.703125 31.582031 -45.363281 31.6875 -46.78125 C 31.070312 -44.601562 30.296875 -42.492188 29.359375 -40.453125 Z M 21.09375 -22.34375 "/></g></g></g><g fill="#000000" fill-opacity="1"><g transform="translate(78.855418, 93.498459)"><g><path d="M 1.265625 0 L 13.046875 -55.75 L 27.953125 -55.75 L 18.765625 -12.15625 L 36.953125 -12.15625 L 34.359375 0 Z M 1.265625 0 "/></g></g></g><g fill="#000000" fill-opacity="1"><g transform="translate(115.626137, 93.498459)"><g><path d="M 1.265625 0 L 13.046875 -55.75 L 27.953125 -55.75 L 18.765625 -12.15625 L 36.953125 -12.15625 L 34.359375 0 Z M 1.265625 0 "/></g></g></g><g fill="#000000" fill-opacity="1"><g transform="translate(152.396856, 93.498459)"><g/></g></g><g fill="#000000" fill-opacity="1"><g transform="translate(168.309405, 93.498459)"><g><path d="M 23.90625 0 L 9 0 L 18.03125 -43.4375 L 5.953125 -43.4375 L 8.578125 -55.75 L 47.78125 -55.75 L 45.078125 -43.4375 L 32.953125 -43.4375 Z M 23.90625 0 "/></g></g></g><g fill="#000000" fill-opacity="1"><g transform="translate(207.024857, 93.498459)"><g><path d="M 44.34375 0 L 29.4375 0 L 34.203125 -22.71875 L 21.015625 -22.71875 L 16.171875 0 L 1.265625 0 L 13.046875 -55.75 L 27.953125 -55.75 L 23.6875 -35.078125 L 36.953125 -35.078125 L 41.21875 -55.75 L 56.171875 -55.75 Z M 44.34375 0 "/></g></g></g><g fill="#000000" fill-opacity="1"><g transform="translate(258.400109, 93.498459)"><g><path d="M 32.71875 -10.453125 L 15.640625 -10.453125 L 10.875 0 L -4.609375 0 L 23.75 -55.75 L 42.9375 -55.75 L 47.625 0 L 33.09375 0 Z M 21.09375 -22.34375 L 32.265625 -22.34375 L 31.609375 -38.515625 L 31.53125 -41.796875 C 31.53125 -43.703125 31.582031 -45.363281 31.6875 -46.78125 C 31.070312 -44.601562 30.296875 -42.492188 29.359375 -40.453125 Z M 21.09375 -22.34375 "/></g></g></g><g fill="#000000" fill-opacity="1"><g transform="translate(306.801062, 93.498459)"><g><path d="M 23.90625 0 L 9 0 L 18.03125 -43.4375 L 5.953125 -43.4375 L 8.578125 -55.75 L 47.78125 -55.75 L 45.078125 -43.4375 L 32.953125 -43.4375 Z M 23.90625 0 "/></g></g></g><g fill="#ffffff" fill-opacity="1"><g transform="translate(27.779474, 89.532621)"><g><path d="M 32.71875 -10.453125 L 15.640625 -10.453125 L 10.875 0 L -4.609375 0 L 23.75 -55.75 L 42.9375 -55.75 L 47.625 0 L 33.09375 0 Z M 21.09375 -22.34375 L 32.265625 -22.34375 L 31.609375 -38.515625 L 31.53125 -41.796875 C 31.53125 -43.703125 31.582031 -45.363281 31.6875 -46.78125 C 31.070312 -44.601562 30.296875 -42.492188 29.359375 -40.453125 Z M 21.09375 -22.34375 "/></g></g></g><g fill="#ffffff" fill-opacity="1"><g transform="translate(76.180427, 89.532621)"><g><path d="M 1.265625 0 L 13.046875 -55.75 L 27.953125 -55.75 L 18.765625 -12.15625 L 36.953125 -12.15625 L 34.359375 0 Z M 1.265625 0 "/></g></g></g><g fill="#ffffff" fill-opacity="1"><g transform="translate(112.951146, 89.532621)"><g><path d="M 1.265625 0 L 13.046875 -55.75 L 27.953125 -55.75 L 18.765625 -12.15625 L 36.953125 -12.15625 L 34.359375 0 Z M 1.265625 0 "/></g></g></g><g fill="#ffffff" fill-opacity="1"><g transform="translate(149.721865, 89.532621)"><g/></g></g><g fill="#ffffff" fill-opacity="1"><g transform="translate(165.634414, 89.532621)"><g><path d="M 23.90625 0 L 9 0 L 18.03125 -43.4375 L 5.953125 -43.4375 L 8.578125 -55.75 L 47.78125 -55.75 L 45.078125 -43.4375 L 32.953125 -43.4375 Z M 23.90625 0 "/></g></g></g><g fill="#ffffff" fill-opacity="1"><g transform="translate(204.349866, 89.532621)"><g><path d="M 44.34375 0 L 29.4375 0 L 34.203125 -22.71875 L 21.015625 -22.71875 L 16.171875 0 L 1.265625 0 L 13.046875 -55.75 L 27.953125 -55.75 L 23.6875 -35.078125 L 36.953125 -35.078125 L 41.21875 -55.75 L 56.171875 -55.75 Z M 44.34375 0 "/></g></g></g><g fill="#ffffff" fill-opacity="1"><g transform="translate(255.725118, 89.532621)"><g><path d="M 32.71875 -10.453125 L 15.640625 -10.453125 L 10.875 0 L -4.609375 0 L 23.75 -55.75 L 42.9375 -55.75 L 47.625 0 L 33.09375 0 Z M 21.09375 -22.34375 L 32.265625 -22.34375 L 31.609375 -38.515625 L 31.53125 -41.796875 C 31.53125 -43.703125 31.582031 -45.363281 31.6875 -46.78125 C 31.070312 -44.601562 30.296875 -42.492188 29.359375 -40.453125 Z M 21.09375 -22.34375 "/></g></g></g><g fill="#ffffff" fill-opacity="1"><g transform="translate(304.126071, 89.532621)"><g><path d="M 23.90625 0 L 9 0 L 18.03125 -43.4375 L 5.953125 -43.4375 L 8.578125 -55.75 L 47.78125 -55.75 L 45.078125 -43.4375 L 32.953125 -43.4375 Z M 23.90625 0 "/></g></g></g><g fill="#000000" fill-opacity="1"><g transform="translate(26.18528, 160.955119)"><g><path d="M 44.34375 0 L 29.4375 0 L 34.203125 -22.71875 L 21.015625 -22.71875 L 16.171875 0 L 1.265625 0 L 13.046875 -55.75 L 27.953125 -55.75 L 23.6875 -35.078125 L 36.953125 -35.078125 L 41.21875 -55.75 L 56.171875 -55.75 Z M 44.34375 0 "/></g></g></g><g fill="#000000" fill-opacity="1"><g transform="translate(77.560524, 160.955119)"><g><path d="M 32.71875 -10.453125 L 15.640625 -10.453125 L 10.875 0 L -4.609375 0 L 23.75 -55.75 L 42.9375 -55.75 L 47.625 0 L 33.09375 0 Z M 21.09375 -22.34375 L 32.265625 -22.34375 L 31.609375 -38.515625 L 31.53125 -41.796875 C 31.53125 -43.703125 31.582031 -45.363281 31.6875 -46.78125 C 31.070312 -44.601562 30.296875 -42.492188 29.359375 -40.453125 Z M 21.09375 -22.34375 "/></g></g></g><g fill="#000000" fill-opacity="1"><g transform="translate(125.961477, 160.955119)"><g><path d="M 47.703125 -39.046875 C 47.703125 -32.640625 45.519531 -27.613281 41.15625 -23.96875 C 36.800781 -20.320312 30.835938 -18.5 23.265625 -18.5 L 19.984375 -18.5 L 16.171875 0 L 1.265625 0 L 13.046875 -55.75 L 27.265625 -55.75 C 33.847656 -55.75 38.898438 -54.304688 42.421875 -51.421875 C 45.941406 -48.535156 47.703125 -44.410156 47.703125 -39.046875 Z M 22.65625 -30.703125 L 25.046875 -30.703125 C 27.359375 -30.703125 29.226562 -31.441406 30.65625 -32.921875 C 32.082031 -34.410156 32.796875 -36.300781 32.796875 -38.59375 C 32.796875 -40.09375 32.335938 -41.296875 31.421875 -42.203125 C 30.503906 -43.117188 29.242188 -43.578125 27.640625 -43.578125 L 25.390625 -43.578125 Z M 22.65625 -30.703125 "/></g></g></g><g fill="#000000" fill-opacity="1"><g transform="translate(170.244182, 160.955119)"><g><path d="M 47.703125 -39.046875 C 47.703125 -32.640625 45.519531 -27.613281 41.15625 -23.96875 C 36.800781 -20.320312 30.835938 -18.5 23.265625 -18.5 L 19.984375 -18.5 L 16.171875 0 L 1.265625 0 L 13.046875 -55.75 L 27.265625 -55.75 C 33.847656 -55.75 38.898438 -54.304688 42.421875 -51.421875 C 45.941406 -48.535156 47.703125 -44.410156 47.703125 -39.046875 Z M 22.65625 -30.703125 L 25.046875 -30.703125 C 27.359375 -30.703125 29.226562 -31.441406 30.65625 -32.921875 C 32.082031 -34.410156 32.796875 -36.300781 32.796875 -38.59375 C 32.796875 -40.09375 32.335938 -41.296875 31.421875 -42.203125 C 30.503906 -43.117188 29.242188 -43.578125 27.640625 -43.578125 L 25.390625 -43.578125 Z M 22.65625 -30.703125 "/></g></g></g><g fill="#000000" fill-opacity="1"><g transform="translate(214.526895, 160.955119)"><g><path d="M 34.359375 0 L 1.265625 0 L 13.046875 -55.75 L 46.140625 -55.75 L 43.65625 -43.65625 L 25.46875 -43.65625 L 23.6875 -34.890625 L 40.609375 -34.890625 L 37.859375 -22.796875 L 20.9375 -22.796875 L 18.765625 -12.28125 L 36.953125 -12.28125 Z M 34.359375 0 "/></g></g></g><g fill="#000000" fill-opacity="1"><g transform="translate(254.043113, 160.955119)"><g><path d="M 50.296875 0 L 32.953125 0 L 21.921875 -39.203125 L 21.625 -39.203125 C 20.882812 -31.804688 20.160156 -26.492188 19.453125 -23.265625 L 14.53125 0 L 1.265625 0 L 13.046875 -55.75 L 30.390625 -55.75 L 41.296875 -18.265625 L 41.640625 -18.265625 C 42.378906 -24.265625 43.101562 -28.976562 43.8125 -32.40625 L 48.8125 -55.75 L 62.078125 -55.75 Z M 50.296875 0 "/></g></g></g><g fill="#000000" fill-opacity="1"><g transform="translate(311.366929, 160.955119)"><g><path d="M 37.25 -17.125 C 37.25 -11.476562 35.378906 -7.082031 31.640625 -3.9375 C 27.910156 -0.800781 22.703125 0.765625 16.015625 0.765625 C 13.222656 0.765625 10.578125 0.453125 8.078125 -0.171875 C 5.585938 -0.796875 3.441406 -1.703125 1.640625 -2.890625 L 1.640625 -16.25 C 3.773438 -14.894531 6.222656 -13.757812 8.984375 -12.84375 C 11.742188 -11.9375 14.238281 -11.484375 16.46875 -11.484375 C 18.351562 -11.484375 19.773438 -11.875 20.734375 -12.65625 C 21.703125 -13.445312 22.1875 -14.566406 22.1875 -16.015625 C 22.1875 -16.703125 22.035156 -17.34375 21.734375 -17.9375 C 21.429688 -18.539062 21 -19.140625 20.4375 -19.734375 C 19.875 -20.328125 18.375 -21.644531 15.9375 -23.6875 C 12.96875 -26.070312 10.804688 -28.507812 9.453125 -31 C 8.109375 -33.488281 7.4375 -36.222656 7.4375 -39.203125 C 7.4375 -42.523438 8.269531 -45.515625 9.9375 -48.171875 C 11.601562 -50.835938 13.953125 -52.898438 16.984375 -54.359375 C 20.023438 -55.816406 23.425781 -56.546875 27.1875 -56.546875 C 33.257812 -56.546875 38.722656 -55.1875 43.578125 -52.46875 L 38.4375 -41.140625 C 34.09375 -43.378906 30.394531 -44.5 27.34375 -44.5 C 25.71875 -44.5 24.460938 -44.140625 23.578125 -43.421875 C 22.703125 -42.710938 22.265625 -41.675781 22.265625 -40.3125 C 22.265625 -39.0625 22.691406 -37.894531 23.546875 -36.8125 C 24.398438 -35.738281 26.019531 -34.296875 28.40625 -32.484375 C 31.40625 -30.273438 33.628906 -27.945312 35.078125 -25.5 C 36.523438 -23.0625 37.25 -20.269531 37.25 -17.125 Z M 37.25 -17.125 "/></g></g></g><g fill="#ffffff" fill-opacity="1"><g transform="translate(23.51029, 156.989281)"><g><path d="M 44.34375 0 L 29.4375 0 L 34.203125 -22.71875 L 21.015625 -22.71875 L 16.171875 0 L 1.265625 0 L 13.046875 -55.75 L 27.953125 -55.75 L 23.6875 -35.078125 L 36.953125 -35.078125 L 41.21875 -55.75 L 56.171875 -55.75 Z M 44.34375 0 "/></g></g></g><g fill="#ffffff" fill-opacity="1"><g transform="translate(74.885533, 156.989281)"><g><path d="M 32.71875 -10.453125 L 15.640625 -10.453125 L 10.875 0 L -4.609375 0 L 23.75 -55.75 L 42.9375 -55.75 L 47.625 0 L 33.09375 0 Z M 21.09375 -22.34375 L 32.265625 -22.34375 L 31.609375 -38.515625 L 31.53125 -41.796875 C 31.53125 -43.703125 31.582031 -45.363281 31.6875 -46.78125 C 31.070312 -44.601562 30.296875 -42.492188 29.359375 -40.453125 Z M 21.09375 -22.34375 "/></g></g></g><g fill="#ffffff" fill-opacity="1"><g transform="translate(123.286486, 156.989281)"><g><path d="M 47.703125 -39.046875 C 47.703125 -32.640625 45.519531 -27.613281 41.15625 -23.96875 C 36.800781 -20.320312 30.835938 -18.5 23.265625 -18.5 L 19.984375 -18.5 L 16.171875 0 L 1.265625 0 L 13.046875 -55.75 L 27.265625 -55.75 C 33.847656 -55.75 38.898438 -54.304688 42.421875 -51.421875 C 45.941406 -48.535156 47.703125 -44.410156 47.703125 -39.046875 Z M 22.65625 -30.703125 L 25.046875 -30.703125 C 27.359375 -30.703125 29.226562 -31.441406 30.65625 -32.921875 C 32.082031 -34.410156 32.796875 -36.300781 32.796875 -38.59375 C 32.796875 -40.09375 32.335938 -41.296875 31.421875 -42.203125 C 30.503906 -43.117188 29.242188 -43.578125 27.640625 -43.578125 L 25.390625 -43.578125 Z M 22.65625 -30.703125 "/></g></g></g><g fill="#ffffff" fill-opacity="1"><g transform="translate(167.569191, 156.989281)"><g><path d="M 47.703125 -39.046875 C 47.703125 -32.640625 45.519531 -27.613281 41.15625 -23.96875 C 36.800781 -20.320312 30.835938 -18.5 23.265625 -18.5 L 19.984375 -18.5 L 16.171875 0 L 1.265625 0 L 13.046875 -55.75 L 27.265625 -55.75 C 33.847656 -55.75 38.898438 -54.304688 42.421875 -51.421875 C 45.941406 -48.535156 47.703125 -44.410156 47.703125 -39.046875 Z M 22.65625 -30.703125 L 25.046875 -30.703125 C 27.359375 -30.703125 29.226562 -31.441406 30.65625 -32.921875 C 32.082031 -34.410156 32.796875 -36.300781 32.796875 -38.59375 C 32.796875 -40.09375 32.335938 -41.296875 31.421875 -42.203125 C 30.503906 -43.117188 29.242188 -43.578125 27.640625 -43.578125 L 25.390625 -43.578125 Z M 22.65625 -30.703125 "/></g></g></g><g fill="#ffffff" fill-opacity="1"><g transform="translate(211.851905, 156.989281)"><g><path d="M 34.359375 0 L 1.265625 0 L 13.046875 -55.75 L 46.140625 -55.75 L 43.65625 -43.65625 L 25.46875 -43.65625 L 23.6875 -34.890625 L 40.609375 -34.890625 L 37.859375 -22.796875 L 20.9375 -22.796875 L 18.765625 -12.28125 L 36.953125 -12.28125 Z M 34.359375 0 "/></g></g></g><g fill="#ffffff" fill-opacity="1"><g transform="translate(251.368122, 156.989281)"><g><path d="M 50.296875 0 L 32.953125 0 L 21.921875 -39.203125 L 21.625 -39.203125 C 20.882812 -31.804688 20.160156 -26.492188 19.453125 -23.265625 L 14.53125 0 L 1.265625 0 L 13.046875 -55.75 L 30.390625 -55.75 L 41.296875 -18.265625 L 41.640625 -18.265625 C 42.378906 -24.265625 43.101562 -28.976562 43.8125 -32.40625 L 48.8125 -55.75 L 62.078125 -55.75 Z M 50.296875 0 "/></g></g></g><g fill="#ffffff" fill-opacity="1"><g transform="translate(308.691939, 156.989281)"><g><path d="M 37.25 -17.125 C 37.25 -11.476562 35.378906 -7.082031 31.640625 -3.9375 C 27.910156 -0.800781 22.703125 0.765625 16.015625 0.765625 C 13.222656 0.765625 10.578125 0.453125 8.078125 -0.171875 C 5.585938 -0.796875 3.441406 -1.703125 1.640625 -2.890625 L 1.640625 -16.25 C 3.773438 -14.894531 6.222656 -13.757812 8.984375 -12.84375 C 11.742188 -11.9375 14.238281 -11.484375 16.46875 -11.484375 C 18.351562 -11.484375 19.773438 -11.875 20.734375 -12.65625 C 21.703125 -13.445312 22.1875 -14.566406 22.1875 -16.015625 C 22.1875 -16.703125 22.035156 -17.34375 21.734375 -17.9375 C 21.429688 -18.539062 21 -19.140625 20.4375 -19.734375 C 19.875 -20.328125 18.375 -21.644531 15.9375 -23.6875 C 12.96875 -26.070312 10.804688 -28.507812 9.453125 -31 C 8.109375 -33.488281 7.4375 -36.222656 7.4375 -39.203125 C 7.4375 -42.523438 8.269531 -45.515625 9.9375 -48.171875 C 11.601562 -50.835938 13.953125 -52.898438 16.984375 -54.359375 C 20.023438 -55.816406 23.425781 -56.546875 27.1875 -56.546875 C 33.257812 -56.546875 38.722656 -55.1875 43.578125 -52.46875 L 38.4375 -41.140625 C 34.09375 -43.378906 30.394531 -44.5 27.34375 -44.5 C 25.71875 -44.5 24.460938 -44.140625 23.578125 -43.421875 C 22.703125 -42.710938 22.265625 -41.675781 22.265625 -40.3125 C 22.265625 -39.0625 22.691406 -37.894531 23.546875 -36.8125 C 24.398438 -35.738281 26.019531 -34.296875 28.40625 -32.484375 C 31.40625 -30.273438 33.628906 -27.945312 35.078125 -25.5 C 36.523438 -23.0625 37.25 -20.269531 37.25 -17.125 Z M 37.25 -17.125 "/></g></g></g></svg>