<?xml version="1.0" standalone="no"?>
<!DOCTYPE svg PUBLIC "-//W3C//DTD SVG 20010904//EN"
 "http://www.w3.org/TR/2001/REC-SVG-20010904/DTD/svg10.dtd">
<svg version="1.0" xmlns="http://www.w3.org/2000/svg"
 width="2560.000000pt" height="2560.000000pt" viewBox="0 0 2560.000000 2560.000000"
 preserveAspectRatio="xMidYMid meet">
<metadata>
Created by potrace 1.14, written by Peter Selinger 2001-2017
</metadata>
<g transform="translate(0.000000,2560.000000) scale(0.100000,-0.100000)"
fill="#000000" stroke="none">
<path d="M5595 12924 c-946 -1862 -1721 -3392 -1723 -3400 -3 -12 484 -14
3452 -14 1901 0 3456 3 3456 8 -1 15 -3447 6786 -3456 6789 -5 1 -783 -1521
-1729 -3383z"/>
<path d="M9090 14895 l0 -1145 885 0 885 0 0 -2120 0 -2120 1163 0 1164 0 6
428 c4 235 7 1189 7 2120 l0 1692 805 0 805 0 0 1145 0 1145 -2860 0 -2860 0
0 -1145z"/>
</g>
</svg>
